PathFileType	4	(X/Y/Z)	C:\Users\Basilio\Documents\Thesis Gigler\squatting_fais\c3dfiles\039\SLS_pre_back5\markers_experimental.trc
DataRate	CameraRate	NumFrames	NumMarkers	Units	OrigDataRate	OrigDataStartFrame	OrigNumFrames
200.000000	200.000000	4	65	mm	200.000000	1692	1934
Frame#	Time	FHD			LBHD			RBHD			C7			T10			CLAV			LSHO			LUUPA			LMUPA			LDUPA			LLEP			LMEP			LRAD			LUL			LRFIN			RSHO			RUPA1			RMUPA			RDUPA			RLEP			RMEP			RRAD			RUL			RUFIN			LASI			RASI			USACR			LSACR			RSACR			LTHI1			LTHI2			LTHI3			LTHI4			LLFC			LMFC			LTIB1			LTIB2			LTIB3			LTIB4			LLMAL			LMMAL			LHEE			LMT1			LMT2			LMT5			RTHI			RTHI2			RTHI3			RTHI4			RLFC			RMFC			RTIB1			RTIB2			RTIB3			RTIB4			RLMAL			RMMAL			RHEE			RMT1			RMT2			RMT5			*61			*62			*63			*64			
		X1	Y1	Z1	X2	Y2	Z2	X3	Y3	Z3	X4	Y4	Z4	X5	Y5	Z5	X6	Y6	Z6	X7	Y7	Z7	X8	Y8	Z8	X9	Y9	Z9	X10	Y10	Z10	X11	Y11	Z11	X12	Y12	Z12	X13	Y13	Z13	X14	Y14	Z14	X15	Y15	Z15	X16	Y16	Z16	X17	Y17	Z17	X18	Y18	Z18	X19	Y19	Z19	X20	Y20	Z20	X21	Y21	Z21	X22	Y22	Z22	X23	Y23	Z23	X24	Y24	Z24	X25	Y25	Z25	X26	Y26	Z26	X27	Y27	Z27	X28	Y28	Z28	X29	Y29	Z29	X30	Y30	Z30	X31	Y31	Z31	X32	Y32	Z32	X33	Y33	Z33	X34	Y34	Z34	X35	Y35	Z35	X36	Y36	Z36	X37	Y37	Z37	X38	Y38	Z38	X39	Y39	Z39	X40	Y40	Z40	X41	Y41	Z41	X42	Y42	Z42	X43	Y43	Z43	X44	Y44	Z44	X45	Y45	Z45	X46	Y46	Z46	X47	Y47	Z47	X48	Y48	Z48	X49	Y49	Z49	X50	Y50	Z50	X51	Y51	Z51	X52	Y52	Z52	X53	Y53	Z53	X54	Y54	Z54	X55	Y55	Z55	X56	Y56	Z56	X57	Y57	Z57	X58	Y58	Z58	X59	Y59	Z59	X60	Y60	Z60	X61	Y61	Z61	X62	Y62	Z62	X63	Y63	Z63	X64	Y64	Z64	X65	Y65	Z65	

1693	8.460000000000001	-251.0024414062501	1790.738159179688	-649.9565429687501	-406.0997924804689	1756.396728515625	-771.1687011718752	-379.3348388671876	1756.664916992188	-632.0772094726564	-442.981658935547	1590.981811523438	-714.9729003906251	-457.007293701172	1284.335205078125	-757.2809448242189	nan	nan	nan	-372.8453063964844	1607.280029296875	-878.223815917969	-225.1929931640626	1550.4150390625	-1011.738891601563	-196.4359741210938	1583.566772460938	-986.3240356445315	-155.9696960449219	1555.85791015625	-1021.361083984375	-87.75216674804689	1561.730224609375	-1026.972290039063	-81.75167846679689	1488.655151367188	-990.9112548828127	171.0922088623047	1608.044189453125	-890.5842895507815	185.3181915283203	1611.950073242188	-965.5495605468752	242.7868652343751	1655.071655273438	-872.2847290039065	-321.3108825683594	1582.048828125	-554.8838500976564	-170.0703430175782	1481.619140625	-455.0897827148439	-138.7204284667969	1516.35302734375	-472.619354248047	-100.973747253418	1473.691162109375	-451.7350463867189	-36.17665100097657	1484.877319335938	-456.5735778808595	-34.26567840576173	1423.445434570313	-506.0217895507814	247.3851928710938	1533.878295898438	-552.2810668945314	254.7378082275391	1512.814697265625	-479.3804321289064	329.2708740234376	1574.374633789063	-545.9528198242189	-298.9615783691407	1106.089111328125	-897.5958251953127	-280.7275695800782	1081.638061523438	-676.9027099609376	-472.3860168457032	1156.09716796875	-766.2489624023439	-478.0554809570314	1125.936279296875	-797.063903808594	-472.5225219726564	1120.79541015625	-737.7363281250001	-306.9909362792969	842.7974853515627	-1008.083618164063	-251.7677612304688	780.3018798828127	-1026.26416015625	-205.8988647460938	793.8074340820315	-1022.475402832031	-260.8231811523438	719.0358886718751	-1019.6416015625	-231.6082000732422	629.7764892578126	-1019.508972167969	-191.5133209228516	585.5678100585939	-919.966735839844	-289.6555175781251	499.019256591797	-999.2258300781252	-367.9216003417969	539.3903198242189	-1013.319519042969	-347.8660278320313	501.2799377441407	-1007.788940429688	-402.4445800781251	455.3374633789064	-957.1936645507815	-586.3722534179689	424.8131713867189	-943.1411132812502	-548.2172241210939	401.3851623535157	-866.580749511719	-651.5805053710939	447.2106323242189	-879.070251464844	-521.2944335937501	254.7416076660157	-912.5020751953127	-538.1254272460939	260.5617065429688	-951.705749511719	-597.7850341796876	283.6702880859376	-982.3254394531252	-314.7269897460938	809.9332275390627	-629.8527832031251	-270.4118652343751	759.4053344726564	-634.0120239257814	-239.3497467041016	766.0372924804689	-641.8315429687501	-291.9321289062501	678.2886352539064	-652.2468872070314	-316.8317565917969	539.8416748046876	-687.2288208007814	-287.5948181152344	541.1402587890626	-803.5144042968752	-279.6399841308594	329.1902160644532	-721.0863647460939	-364.7856140136719	263.7828979492188	-716.7248535156251	-319.6112976074219	254.474105834961	-717.0718383789064	-303.0357055664063	209.5750274658204	-754.6964111328126	-370.6385803222657	115.5396575927735	-737.9284057617189	-341.5821533203126	137.8558807373047	-821.1318359375002	-438.5597534179689	96.61702728271487	-792.5678710937502	-213.8186645507813	54.77505111694337	-804.827331542969	-217.6712188720704	54.6729202270508	-759.2840576171876	-272.3842163085938	34.37051010131837	-707.9059448242189	nan	nan	nan	nan	nan	nan	nan	nan	nan	nan	nan	nan	
1694	8.465	-250.9955749511719	1791.108154296875	-649.8521728515626	-407.3145446777345	1756.428833007813	-771.2056884765627	-379.4340515136719	1756.506103515625	-632.4080810546876	-442.8826904296876	1591.06396484375	-715.1738891601564	-457.0492553710939	1284.3837890625	-757.2509155273439	nan	nan	nan	-373.0040893554688	1606.85791015625	-878.874938964844	-225.6136474609376	1548.819458007813	-1012.785827636719	-197.0302886962891	1581.140502929688	-987.7891845703127	-156.6372680664063	1553.447631835938	-1022.958374023438	-88.34120941162111	1558.9990234375	-1028.7109375	-82.49531555175783	1485.880126953125	-992.4415283203127	169.8071746826172	1604.837036132813	-891.454772949219	185.0178680419922	1608.182495117188	-966.077087402344	241.7481689453126	1651.904907226563	-872.8458251953127	-321.3773498535157	1581.654052734375	-554.7830200195314	-170.5524291992188	1480.031005859375	-454.8932189941407	-139.254135131836	1514.615112304688	-472.1672973632814	-101.6511306762696	1471.750610351563	-451.2039489746095	-36.6089210510254	1482.798828125	-455.8114624023439	-35.00581741333009	1421.545654296875	-505.3627014160157	246.7944030761719	1531.083862304688	-552.3068237304689	254.0093841552735	1509.86474609375	-479.5127258300782	328.6867370605469	1571.458740234375	-546.2034301757814	-298.9736328125001	1106.105346679688	-897.6999511718752	-280.7978820800782	1081.627685546875	-676.9945068359376	-472.4852905273439	1156.139282226563	-766.2629394531251	-478.0970153808595	1125.927124023438	-797.0479736328127	-472.538299560547	1120.786376953125	-737.7028198242189	-306.4936828613282	842.9169921875002	-1008.070190429688	-251.1979370117188	780.4248046875002	-1026.177612304688	-205.2179565429688	794.2169189453127	-1022.307800292969	-260.1095886230469	719.2677612304689	-1019.653076171875	-230.8177032470704	629.8768310546876	-1019.339294433594	-190.9573516845703	585.7052612304689	-919.8145141601565	-287.8097839355469	498.285369873047	-999.5897216796877	-366.9096679687501	538.5498046875001	-1013.866333007813	-346.3395690917969	500.4806518554689	-1008.388854980469	-400.6916809082032	453.9127502441407	-958.2024536132815	-584.5559082031251	421.9882812500001	-944.531433105469	-546.4177246093751	398.3276672363282	-867.9105224609377	-650.0515747070314	443.320770263672	-880.5979003906252	-518.0161743164064	252.2742767333985	-914.9905395507815	-534.5515136718751	258.5276794433594	-954.1658935546877	-594.0588989257814	280.8328247070313	-984.9879150390627	-314.6877441406251	809.8555297851565	-629.9932250976564	-270.1400146484376	759.7201538085939	-633.7304077148439	-239.3672485351563	765.9583740234376	-641.9651489257814	-291.9834289550782	678.2988891601564	-652.3876342773439	-316.8109130859376	539.8019409179689	-687.3639526367189	-287.6657104492188	541.1153564453126	-803.6680908203127	-279.5831298828126	329.1621093750001	-721.2517700195314	-364.7893981933594	263.7857666015626	-716.8291625976564	-319.6241149902344	254.3472595214844	-717.3016357421876	-303.0310668945313	209.506820678711	-754.8131103515626	-370.5462951660157	115.5004043579102	-738.0501708984376	-341.5499877929688	137.7809448242188	-821.3009033203127	-438.5856933593751	96.64212036132815	-792.5808715820315	-213.7785644531251	54.69552230834962	-804.8469238281252	-217.6968231201172	54.73939514160158	-759.2022705078126	-272.3820800781251	34.39669036865235	-707.9306640625001	nan	nan	nan	nan	nan	nan	nan	nan	nan	nan	nan	nan	
1695	8.470000000000001	-251.1338043212891	1791.248901367188	-649.9246215820314	-407.2694091796876	1756.2353515625	-771.4023437500002	-379.5010070800782	1756.311645507813	-632.7135009765626	-442.7807617187501	1591.103149414063	-715.3576049804689	-457.087860107422	1284.29541015625	-757.2517089843751	nan	nan	nan	-372.8301086425782	1606.475952148438	-879.5015869140627	-226.2784271240235	1546.7607421875	-1013.923278808594	-197.3136749267579	1579.363159179688	-989.2595825195315	-157.4126586914063	1551.121704101563	-1024.446044921875	-88.95816802978517	1556.105590820313	-1030.467041015625	-83.20645141601564	1483.201049804688	-994.021667480469	168.6274566650391	1601.571899414063	-892.7062988281252	184.375	1604.601196289063	-966.747741699219	240.8789825439454	1648.225341796875	-873.213317871094	-321.3309631347657	1581.198120117188	-554.7830200195314	-171.1671447753907	1478.338134765625	-454.663299560547	-139.761962890625	1512.949951171875	-471.7212829589845	-102.3929138183594	1470.024658203125	-450.5729370117189	-37.10211563110352	1480.648071289063	-455.3313598632814	-35.7059555053711	1419.392578125	-504.7612915039064	246.3553466796876	1527.935791015625	-552.5702514648439	253.3036193847657	1506.6103515625	-479.817352294922	328.1042175292969	1568.426635742188	-546.3911132812501	-299.1166381835938	1106.121704101563	-897.8130493164065	-280.8253784179688	1081.577758789063	-677.1222534179689	-472.529998779297	1156.110961914063	-766.2290649414064	-478.1846008300782	1125.915161132813	-797.0274658203127	-472.5675048828126	1120.770263671875	-737.7138061523439	-306.0337219238282	843.1314697265627	-1008.067077636719	-250.6728973388672	780.6574707031252	-1026.09912109375	-204.7462005615235	794.7073974609377	-1022.149658203125	-259.4116821289063	719.6011352539064	-1019.546081542969	-229.9874725341797	629.9403076171876	-1019.201477050781	-190.3338012695313	585.9011840820314	-919.7244262695315	-286.5085754394532	498.2165527343751	-999.9837646484377	-365.4864501953126	537.2959594726564	-1014.319946289063	-344.8204040527344	499.2497558593751	-1008.878601074219	-399.1257629394532	452.7318420410157	-958.8551025390627	-582.5169677734376	419.2951965332032	-945.9696044921877	-544.5362548828126	395.3939208984376	-869.3808593750002	-648.6353759765626	439.3334045410157	-881.8518676757815	-514.4760742187501	250.0157928466797	-917.5338134765627	-530.7028808593751	256.1745910644532	-956.8089599609377	-590.4389648437501	278.7460632324219	-987.6524658203127	-314.7368774414063	809.7534790039065	-630.1440429687501	-270.1804809570313	759.6088867187501	-633.8779296875001	-239.3916015625001	765.9400634765626	-642.0608520507814	-292.0085144042969	678.2393188476564	-652.4754028320314	-316.8173828125001	539.7182617187501	-687.4792480468751	-287.7188720703126	541.0762329101564	-803.816101074219	-279.5287170410157	329.0816650390626	-721.4637451171876	-364.7869873046876	263.7896118164063	-716.9631958007814	-319.5899658203126	254.2617797851563	-717.4588623046876	-303.0149841308594	209.5274810791016	-754.9515380859376	-370.5855102539063	115.5040130615235	-738.1390991210939	-341.5941467285157	137.6685791015625	-821.4083251953127	-438.5934448242189	96.60356903076175	-792.642761230469	-213.7844238281251	54.64033508300783	-804.8798828125002	-217.6626129150391	54.73798751831056	-759.2585449218751	-272.4128723144532	34.42919921875001	-707.9569702148439	nan	nan	nan	nan	nan	nan	nan	nan	nan	nan	nan	nan	
1696	8.475	-251.2618103027344	1791.476684570313	-650.0887451171876	-407.0215148925782	1755.987670898438	-771.809753417969	-379.6253662109376	1756.141479492188	-632.9924926757814	-442.6188964843751	1591.034057617188	-715.5294799804689	-457.1660461425782	1284.26416015625	-757.2010498046876	nan	nan	nan	-372.8833618164063	1606.197021484375	-880.1076660156252	-226.9100952148438	1544.726440429688	-1015.162475585938	-197.653549194336	1577.036254882813	-990.762878417969	-158.0779266357422	1548.621337890625	-1025.896728515625	-89.64167785644533	1553.2197265625	-1032.205444335938	-84.22890472412111	1480.13720703125	-995.6964111328127	167.3273010253907	1598.256103515625	-893.3554687500002	183.8644409179688	1600.958618164063	-967.3936767578127	239.5744934082032	1644.815551757813	-873.652770996094	-321.2804870605469	1580.845092773438	-554.7996826171876	-172.1123962402344	1476.487060546875	-454.5795288085939	-140.1208038330078	1511.40380859375	-471.3381347656251	-103.0935745239258	1468.013061523438	-450.1801147460939	-37.86046218872071	1478.252075195313	-454.7270507812501	-36.54877471923829	1417.188598632813	-504.1519775390626	245.3686676025391	1525.267456054688	-552.5764770507814	253.0074462890626	1503.69970703125	-480.1120910644532	327.5612487792969	1565.123657226563	-546.7070922851564	-299.3018798828126	1106.114624023438	-897.844665527344	-280.8884582519532	1081.548950195313	-677.2178955078126	-472.5769958496095	1156.093139648438	-766.1718750000001	-478.2889404296876	1125.928100585938	-796.9866333007815	-472.5838012695314	1120.676391601563	-737.6802368164064	-305.6015625000001	843.391540527344	-1008.0517578125	-250.1090087890626	780.9022216796877	-1025.981811523438	-204.1721496582032	794.900085449219	-1021.871887207031	-258.6710205078126	719.9329833984376	-1019.498596191406	-229.3703002929688	630.0491943359376	-1019.091491699219	-189.7731170654297	586.0236206054689	-919.5443115234377	-284.9586181640626	497.5547790527345	-1000.511474609375	-364.4157409667969	536.2945556640626	-1014.910461425781	-343.2879638671876	499.0548706054689	-1009.267944335938	-397.1910705566407	450.8583374023439	-960.2136840820315	-580.4706420898439	416.0656127929689	-947.449645996094	-542.4874877929689	392.2944335937501	-870.914245605469	-646.7753906250001	435.2504882812501	-883.4946899414065	-510.9890441894532	247.6074676513672	-919.8819580078127	-526.6642456054689	254.4625091552735	-959.1545410156252	-587.0260009765626	276.2514953613282	-990.3215332031252	-314.7911987304688	809.7098388671877	-630.2738647460939	-270.1498107910157	759.5525512695314	-633.9324951171876	-239.4103088378907	765.8939819335939	-642.1640625000001	-292.0595703125001	678.2196655273439	-652.6106567382814	-316.7652893066407	539.6647338867189	-687.5543212890626	-287.7665405273438	541.0252685546876	-803.936706542969	-279.5050964355469	329.0491943359376	-721.5418701171876	-364.7866821289063	263.7234497070313	-717.1592407226564	-319.5429992675782	254.1980133056641	-717.5405883789064	-303.0254821777344	209.0726623535157	-755.2680053710939	-370.5365295410157	115.4703598022461	-738.2213745117189	-341.6242980957032	137.6012420654297	-821.5473632812502	-438.5734863281251	96.54563140869143	-792.6372680664065	-213.8157501220704	54.61035537719728	-804.9313964843752	-217.6810150146485	54.78916168212892	-759.2629394531251	-272.3982543945313	34.43873596191407	-707.9309692382814	nan	nan	nan	nan	nan	nan	nan	nan	nan	nan	nan	nan	
